<svg width="422" height="422" viewBox="0 0 422 422" fill="none" xmlns="http://www.w3.org/2000/svg">
<circle cx="211" cy="211" r="211" fill="#8023FF"/>
<path d="M373.108 271.034C373.242 271.114 373.381 271.183 373.514 271.263L372.725 270.791C234.319 187.445 317.268 48.447 317.268 48.447C317.268 48.447 234.288 187.426 95.2461 105.146L94.4562 104.675C94.5896 104.754 94.7168 104.844 94.8501 104.924C94.7168 104.844 94.5773 104.775 94.444 104.695L95.2338 105.167C233.639 188.514 150.68 327.505 150.68 327.505C150.68 327.505 233.66 188.526 372.702 270.806L373.492 271.277C373.375 271.194 373.242 271.114 373.108 271.034Z" fill="#FDFDFD"/>
<path d="M108.389 389.802C109.13 390.267 109.87 390.733 110.611 391.198C114.56 385.461 118.484 379.709 122.383 373.941C137.979 350.869 153.18 327.549 167.986 303.98C173.978 294.441 179.964 284.897 185.942 275.348L185.886 275.435C205.176 246.573 224.399 217.665 243.554 188.713L243.704 188.466C267.942 143.099 292.025 97.647 315.952 52.1109C319.189 45.9507 322.423 39.7889 325.654 33.6256C324.885 33.2085 324.115 32.7915 323.346 32.3744C319.944 38.445 316.545 44.5172 313.148 50.5909C288.042 95.4876 263.091 140.469 238.296 185.534L238.446 185.287C218.935 214.002 199.491 242.761 180.114 271.565L180.058 271.652C174.051 281.182 168.051 290.717 162.058 300.257C147.252 323.825 132.842 347.642 118.826 371.707C115.322 377.723 111.843 383.755 108.389 389.802Z" fill="#FDFDFD"/>
<path d="M36.4225 68.3918C35.9748 69.1436 35.527 69.8953 35.0793 70.6471C41.1211 74.5851 47.1779 78.4981 53.2496 82.386C77.5363 97.9378 102.062 113.089 126.826 127.838C135.441 132.969 144.059 138.095 152.68 143.215L152.591 143.161C181.899 161.768 211.246 180.312 240.634 198.793L240.753 198.865C289.56 226.611 338.466 254.187 387.471 281.593C393.761 285.111 400.052 288.625 406.345 292.137C406.782 291.379 407.218 290.621 407.655 289.863C401.459 286.182 395.261 282.504 389.062 278.83C340.764 250.199 292.367 221.738 243.872 193.448L243.991 193.52C214.811 174.712 185.591 155.968 156.331 137.288L156.242 137.233C147.634 132.092 139.023 126.955 130.408 121.824C105.644 107.074 80.6407 92.7256 55.3988 78.7776C49.0883 75.2906 42.7629 71.8287 36.4225 68.3918Z" fill="#FDFDFD"/>
</svg>
