<svg width="233" height="86" viewBox="0 0 233 86" fill="none" xmlns="http://www.w3.org/2000/svg">
<path d="M214.365 65.434C211.141 65.434 208.579 64.4834 206.677 62.582C204.817 60.6394 203.887 57.8907 203.887 54.336V37.782H198.555V30.652H220.317V37.782H212.753V54.646C212.753 55.7207 213.063 56.5267 213.683 57.064C214.303 57.6014 215.006 57.87 215.791 57.87C216.287 57.87 216.742 57.7874 217.155 57.622C217.61 57.4567 218.044 57.2087 218.457 56.878L221.557 62.892C220.483 63.76 219.367 64.4007 218.209 64.814C217.052 65.2274 215.771 65.434 214.365 65.434ZM201.159 33.38V30.652C202.069 30.652 202.771 30.3834 203.267 29.846C203.805 29.3087 204.073 28.5854 204.073 27.676V22.158H212.753V26.25C212.753 26.87 212.588 27.49 212.257 28.11C211.968 28.73 211.555 29.2674 211.017 29.722C210.48 30.1767 209.839 30.4867 209.095 30.652L201.159 33.38Z" fill="white"/>
<path d="M185.704 65V30.652H194.508V65H185.704ZM190.168 26.498C188.432 26.498 186.986 25.9814 185.828 24.948C184.671 23.8734 184.092 22.5507 184.092 20.98C184.092 19.4094 184.671 18.0867 185.828 17.012C186.986 15.9374 188.432 15.4 190.168 15.4C191.904 15.4 193.351 15.9374 194.508 17.012C195.666 18.0867 196.244 19.4094 196.244 20.98C196.244 22.5507 195.666 23.8734 194.508 24.948C193.351 25.9814 191.904 26.498 190.168 26.498Z" fill="white"/>
<path d="M165.82 65.434C163.134 65.434 160.757 64.7313 158.69 63.326C156.665 61.9207 155.218 59.9573 154.35 57.436V60.35C154.35 61.7553 153.937 62.892 153.11 63.76C152.284 64.5867 151.147 65 149.7 65H145.546V19.12H154.35V38.154C155.218 35.674 156.665 33.7313 158.69 32.326C160.757 30.9207 163.134 30.218 165.82 30.218C168.838 30.218 171.504 30.9827 173.818 32.512C176.174 34 178.014 36.0667 179.336 38.712C180.659 41.3573 181.32 44.3953 181.32 47.826C181.32 51.2153 180.659 54.2533 179.336 56.94C178.014 59.5853 176.174 61.6727 173.818 63.202C171.504 64.69 168.838 65.434 165.82 65.434ZM163.34 57.808C164.911 57.808 166.378 57.4153 167.742 56.63C169.106 55.8447 170.202 54.708 171.028 53.22C171.896 51.732 172.33 49.934 172.33 47.826C172.33 45.6353 171.896 43.8167 171.028 42.37C170.202 40.882 169.106 39.766 167.742 39.022C166.378 38.2367 164.911 37.844 163.34 37.844C161.77 37.844 160.302 38.2367 158.938 39.022C157.574 39.766 156.458 40.882 155.59 42.37C154.764 43.858 154.35 45.6767 154.35 47.826C154.35 49.934 154.764 51.732 155.59 53.22C156.458 54.708 157.574 55.8447 158.938 56.63C160.302 57.4153 161.77 57.808 163.34 57.808Z" fill="white"/>
<path d="M122.098 65V30.652H130.84V65H122.098ZM128.98 48.942L130.84 38.526C131.625 35.9633 132.948 33.938 134.808 32.45C136.709 30.962 138.962 30.218 141.566 30.218V39.394C141.194 39.27 140.822 39.208 140.45 39.208C140.119 39.1667 139.768 39.146 139.396 39.146C137.784 39.146 136.316 39.518 134.994 40.262C133.712 41.006 132.7 42.1013 131.956 43.548C131.212 44.9947 130.84 46.7927 130.84 48.942H128.98Z" fill="white"/>
<path d="M95.366 65.434C92.3074 65.434 89.4347 64.8966 86.748 63.822C84.0614 62.7473 81.7054 61.218 79.68 59.234C77.6547 57.25 76.0634 54.9146 74.906 52.228C73.7487 49.5413 73.17 46.5653 73.17 43.3C73.17 40.076 73.7487 37.1206 74.906 34.434C76.0634 31.7473 77.6547 29.4326 79.68 27.49C81.7054 25.506 84.0614 23.9766 86.748 22.902C89.4347 21.8273 92.3074 21.29 95.366 21.29C98.4247 21.29 101.297 21.8273 103.984 22.902C106.671 23.9766 109.006 25.506 110.99 27.49C113.015 29.4326 114.607 31.7473 115.764 34.434C116.921 37.1206 117.5 40.076 117.5 43.3C117.5 46.5653 116.921 49.5413 115.764 52.228C114.607 54.9146 113.015 57.25 110.99 59.234C109.006 61.218 106.671 62.7473 103.984 63.822C101.297 64.8966 98.4247 65.434 95.366 65.434ZM95.304 57.56C97.9494 57.56 100.243 56.9813 102.186 55.824C104.17 54.6666 105.72 53.0133 106.836 50.864C107.952 48.7146 108.51 46.1933 108.51 43.3C108.51 40.4066 107.952 37.906 106.836 35.798C105.72 33.6486 104.17 31.9953 102.186 30.838C100.243 29.6806 97.9494 29.102 95.304 29.102C92.7414 29.102 90.468 29.6806 88.484 30.838C86.5 31.9953 84.95 33.6486 83.834 35.798C82.718 37.906 82.16 40.4066 82.16 43.3C82.16 46.1933 82.718 48.7146 83.834 50.864C84.95 53.0133 86.5 54.6666 88.484 55.824C90.468 56.9813 92.7414 57.56 95.304 57.56Z" fill="white"/>
<path d="M6.94922 28.5527C9.66326 30.402 12.4288 32.1653 15.2451 33.8428C15.6208 34.0665 15.9981 34.2891 16.374 34.5127C21.8888 40.2026 21.3791 46.9564 20.1143 51.4102C19.7879 51.9285 19.4616 52.4472 19.1357 52.9658C17.4518 55.6464 15.8515 58.38 14.3369 61.167C13.9583 61.8637 13.5848 62.5643 13.2168 63.2676C13.3755 63.3673 13.5347 63.4677 13.6934 63.5674C14.1673 62.9305 14.6363 62.29 15.0996 61.6465C16.9529 59.0723 18.7213 56.4443 20.4053 53.7637L21.2324 52.4414C24.5657 49.1127 30.4863 45.1626 38.4727 47.5918C40.6434 48.7887 42.8162 49.9831 44.9932 51.1689C45.7017 51.5549 46.4109 51.9404 47.1201 52.3252C43.4806 60.9479 34.9474 67 25 67C11.7452 67 1 56.2548 1 43C1 37.3484 2.95406 32.1534 6.22266 28.0527C6.4647 28.2196 6.7064 28.3873 6.94922 28.5527ZM38.1416 22.917C44.6803 27.2044 49 34.597 49 43C49 46.1051 48.4094 49.0721 47.3359 51.7959C46.669 51.3889 46.0015 50.982 45.334 50.5762C43.5723 49.5052 41.807 48.4394 40.041 47.376C32.6007 40.8869 33.9313 32.623 35.5332 28.0166C36.0491 27.0128 36.5656 26.009 37.0791 25.0039C37.4341 24.3089 37.7878 23.6126 38.1416 22.917ZM25 19C29.695 19 34.0742 20.3494 37.7734 22.6797C37.7367 22.6598 37.6998 22.64 37.6631 22.6201C37.2676 23.3058 36.8718 23.9923 36.4775 24.6787C35.9871 25.5325 35.4983 26.3874 35.0098 27.2422C32.0165 30.6199 25.8918 35.6525 17.3057 33.3262C16.8749 33.0691 16.4436 32.8114 16.0127 32.5547C13.1962 30.8772 10.328 29.285 7.40918 27.7793C7.18446 27.6634 6.95881 27.5485 6.7334 27.4336C11.1354 22.2729 17.6852 19 25 19Z" fill="white"/>
</svg>
