<svg width="48" height="48" viewBox="0 0 48 48" fill="none" xmlns="http://www.w3.org/2000/svg">
<path d="M5.94922 9.55273C8.66326 11.402 11.4288 13.1653 14.2451 14.8428C14.6208 15.0665 14.9981 15.2891 15.374 15.5127C20.8888 21.2026 20.3791 27.9564 19.1143 32.4102C18.7879 32.9285 18.4616 33.4472 18.1357 33.9658C16.4518 36.6464 14.8515 39.38 13.3369 42.167C12.9583 42.8637 12.5848 43.5643 12.2168 44.2676C12.3755 44.3673 12.5347 44.4677 12.6934 44.5674C13.1673 43.9305 13.6363 43.29 14.0996 42.6465C15.9529 40.0723 17.7213 37.4443 19.4053 34.7637L20.2324 33.4414C23.5657 30.1127 29.4863 26.1626 37.4727 28.5918C39.6434 29.7887 41.8162 30.9831 43.9932 32.1689C44.7017 32.5549 45.4109 32.9404 46.1201 33.3252C42.4806 41.9479 33.9474 48 24 48C10.7452 48 0 37.2548 0 24C0 18.3484 1.95406 13.1534 5.22266 9.05273C5.4647 9.21958 5.7064 9.38729 5.94922 9.55273ZM37.1416 3.91699C43.6803 8.2044 48 15.597 48 24C48 27.1051 47.4094 30.0721 46.3359 32.7959C45.669 32.3889 45.0015 31.982 44.334 31.5762C42.5723 30.5052 40.807 29.4394 39.041 28.376C31.6007 21.8869 32.9313 13.623 34.5332 9.0166C35.0491 8.01278 35.5656 7.00904 36.0791 6.00391C36.4341 5.30891 36.7878 4.61264 37.1416 3.91699ZM24 0C28.695 0 33.0742 1.34944 36.7734 3.67969C36.7367 3.65978 36.6998 3.64004 36.6631 3.62012C36.2676 4.30585 35.8718 4.99232 35.4775 5.67871C34.9871 6.5325 34.4983 7.38739 34.0098 8.24219C31.0165 11.6199 24.8918 16.6525 16.3057 14.3262C15.8749 14.0691 15.4436 13.8114 15.0127 13.5547C12.1962 11.8772 9.32803 10.285 6.40918 8.7793C6.18446 8.66337 5.95881 8.54852 5.7334 8.43359C10.1354 3.27293 16.6852 0 24 0Z" fill="white"/>
</svg>
